<svg width="136" height="135" viewBox="0 0 136 135" fill="none" xmlns="http://www.w3.org/2000/svg">
<path d="M32 21.175L68 81.175H32V21.175Z" fill="url(#paint0_linear_71_6427)"/>
<path d="M68 81.175L32 21.175L68 21.175L68 81.175Z" fill="black"/>
<path d="M68 21.175H99C101.761 21.175 104 23.4136 104 26.175V81.175H68V21.175Z" fill="url(#paint1_linear_71_6427)"/>
<path d="M68 44.175C72.7276 44.175 77.4089 45.1062 81.7766 46.9154C86.1443 48.7245 90.1129 51.3763 93.4558 54.7192C96.7988 58.0621 99.4505 62.0307 101.26 66.3984C103.069 70.7662 104 75.4475 104 80.175C104 84.9026 103.069 89.5839 101.26 93.9517C99.4505 98.3194 96.7988 102.288 93.4558 105.631C90.1129 108.974 86.1443 111.626 81.7766 113.435C77.4089 115.244 72.7276 116.175 68 116.175L68 80.175L68 44.175Z" fill="url(#paint2_angular_71_6427)"/>
<path d="M68 116.175C63.2724 116.175 58.5911 115.244 54.2234 113.435C49.8557 111.626 45.8871 108.974 42.5442 105.631C39.2012 102.288 36.5495 98.3194 34.7403 93.9516C32.9312 89.5839 32 84.9026 32 80.175L68 80.175L68 116.175Z" fill="#FFE9F4"/>
<defs>
<linearGradient id="paint0_linear_71_6427" x1="50" y1="21.175" x2="50" y2="81.175" gradientUnits="userSpaceOnUse">
<stop/>
<stop offset="1" stop-color="#D7D7D7" stop-opacity="0"/>
</linearGradient>
<linearGradient id="paint1_linear_71_6427" x1="68" y1="51.175" x2="126" y2="2.17505" gradientUnits="userSpaceOnUse">
<stop stop-color="#006FFD"/>
<stop offset="0.635417" stop-color="#EBEBEB"/>
<stop offset="1" stop-color="white"/>
</linearGradient>
<radialGradient id="paint2_angular_71_6427" cx="0" cy="0" r="1" gradientUnits="userSpaceOnUse" gradientTransform="translate(68 80.175) rotate(-90) scale(54)">
<stop stop-color="#80D6FF"/>
<stop offset="0.0001" stop-color="#80D6FF"/>
<stop offset="0.255208" stop-color="#F9F9F9"/>
<stop offset="0.5" stop-color="#FFE9F4"/>
</radialGradient>
</defs>
</svg>
