<svg width="32" height="32" viewBox="0 0 32 32" fill="none" xmlns="http://www.w3.org/2000/svg">
<circle cx="16" cy="16" r="11" fill="#FF0000"/>
<path d="M3.75 0.25H28.25C29.1783 0.25 30.0685 0.618749 30.7249 1.27513C31.3813 1.9315 31.75 2.82174 31.75 3.75V28.25C31.75 29.1783 31.3813 30.0685 30.7249 30.7249C30.0685 31.3813 29.1783 31.75 28.25 31.75H3.75C2.82174 31.75 1.9315 31.3813 1.27513 30.7249C0.618749 30.0685 0.25 29.1783 0.25 28.25V3.75C0.25 2.82174 0.618749 1.9315 1.27513 1.27513C1.9315 0.618749 2.82174 0.25 3.75 0.25ZM16 24.75L17.26 23.595C21.775 19.5 24.75 16.805 24.75 13.4975C24.75 10.8025 22.6325 8.685 19.9375 8.685C18.415 8.685 16.9625 9.4025 16 10.5225C15.5124 9.95352 14.9088 9.49526 14.2298 9.17837C13.5507 8.86148 12.8118 8.69327 12.0625 8.685C9.3675 8.685 7.25 10.8025 7.25 13.4975C7.25 16.805 10.225 19.5 14.74 23.595L16 24.75Z" fill="white"/>
</svg>
