<svg width="12" height="7" viewBox="0 0 12 7" fill="none" xmlns="http://www.w3.org/2000/svg">
<path d="M11.3825 0.55673C11.2184 0.392694 10.9959 0.300543 10.7639 0.300543C10.5318 0.300543 10.3093 0.392694 10.1452 0.55673L5.81402 4.88795L1.4828 0.556731C1.31777 0.397343 1.09675 0.309149 0.867328 0.311142C0.637907 0.313136 0.418447 0.405158 0.256216 0.567389C0.093985 0.72962 0.00196404 0.94908 -2.91192e-05 1.1785C-0.00202323 1.40792 0.0861716 1.62895 0.245558 1.79397L5.1954 6.74381C5.35949 6.90785 5.58201 7 5.81402 7C6.04604 7 6.26856 6.90785 6.43264 6.74381L11.3825 1.79397C11.5465 1.62989 11.6387 1.40737 11.6387 1.17535C11.6387 0.943333 11.5465 0.720815 11.3825 0.55673Z" fill="black"/>
</svg>
