<svg width="106" height="39" viewBox="0 0 106 39" fill="none" xmlns="http://www.w3.org/2000/svg">
<path fill-rule="evenodd" clip-rule="evenodd" d="M25.25 19.25C25.25 20.6424 24.6969 21.9777 23.7123 22.9623C22.7277 23.9469 21.3924 24.5 20 24.5C18.6076 24.5 17.2723 23.9469 16.2877 22.9623C15.3031 21.9777 14.75 20.6424 14.75 19.25C14.75 17.8576 15.3031 16.5223 16.2877 15.5377C17.2723 14.5531 18.6076 14 20 14C21.3924 14 22.7277 14.5531 23.7123 15.5377C24.6969 16.5223 25.25 17.8576 25.25 19.25ZM21.75 19.25C21.75 19.7141 21.5656 20.1592 21.2374 20.4874C20.9092 20.8156 20.4641 21 20 21C19.5359 21 19.0908 20.8156 18.7626 20.4874C18.4344 20.1592 18.25 19.7141 18.25 19.25C18.25 18.7859 18.4344 18.3408 18.7626 18.0126C19.0908 17.6844 19.5359 17.5 20 17.5C20.4641 17.5 20.9092 17.6844 21.2374 18.0126C21.5656 18.3408 21.75 18.7859 21.75 19.25Z" fill="#FF0000"/>
<path fill-rule="evenodd" clip-rule="evenodd" d="M20 31.5C21.6087 31.5 23.2016 31.1831 24.6879 30.5675C26.1741 29.9519 27.5245 29.0496 28.6621 27.9121C29.7996 26.7745 30.7019 25.4241 31.3175 23.9379C31.9331 22.4516 32.25 20.8587 32.25 19.25C32.25 17.6413 31.9331 16.0484 31.3175 14.5621C30.7019 13.0759 29.7996 11.7255 28.6621 10.5879C27.5245 9.45042 26.1741 8.5481 24.6879 7.93248C23.2016 7.31686 21.6087 7 20 7C16.7511 7 13.6353 8.29062 11.3379 10.5879C9.04062 12.8853 7.75 16.0011 7.75 19.25C7.75 22.4989 9.04062 25.6147 11.3379 27.9121C13.6353 30.2094 16.7511 31.5 20 31.5ZM20 28C22.3206 28 24.5462 27.0781 26.1872 25.4372C27.8281 23.7962 28.75 21.5706 28.75 19.25C28.75 16.9294 27.8281 14.7038 26.1872 13.0628C24.5462 11.4219 22.3206 10.5 20 10.5C17.6794 10.5 15.4538 11.4219 13.8128 13.0628C12.1719 14.7038 11.25 16.9294 11.25 19.25C11.25 21.5706 12.1719 23.7962 13.8128 25.4372C15.4538 27.0781 17.6794 28 20 28Z" fill="white"/>
<path fill-rule="evenodd" clip-rule="evenodd" d="M20 38.5C30.6313 38.5 39.25 29.8813 39.25 19.25C39.25 8.61875 30.6313 0 20 0C9.36875 0 0.75 8.61875 0.75 19.25C0.75 29.8813 9.36875 38.5 20 38.5ZM20 35C22.0683 35 24.1164 34.5926 26.0273 33.8011C27.9381 33.0096 29.6744 31.8495 31.1369 30.3869C32.5995 28.9244 33.7596 27.1881 34.5511 25.2773C35.3426 23.3664 35.75 21.3183 35.75 19.25C35.75 17.1817 35.3426 15.1336 34.5511 13.2227C33.7596 11.3119 32.5995 9.57559 31.1369 8.11307C29.6744 6.65055 27.9381 5.49041 26.0273 4.6989C24.1164 3.90739 22.0683 3.5 20 3.5C15.8228 3.5 11.8168 5.15937 8.86307 8.11307C5.90937 11.0668 4.25 15.0728 4.25 19.25C4.25 23.4272 5.90937 27.4332 8.86307 30.3869C11.8168 33.3406 15.8228 35 20 35Z" fill="white"/>
<path d="M54.2074 26.8411V10.0649H51.1111V29.7686H63.9748V26.8411H54.2074ZM66.5772 13.1611H69.8142V10.0649H66.5772V13.1611ZM66.7461 29.7686H69.7016V15.6945H66.7461V29.7686ZM75.5657 15.6945H72.385L78.7183 29.7686H81.8427L88.0353 15.6945H84.8827L80.8294 24.6737C80.4635 25.5463 80.4916 26.7286 80.4916 27.6856H79.9287C79.9287 26.7567 79.985 25.5463 79.5909 24.6737L75.5657 15.6945ZM98.1458 30.2189C102.368 30.2189 104.367 27.2071 104.761 25.7434H101.467C101.158 26.616 99.9191 27.6293 97.8925 27.6293C94.7117 27.6293 93.1917 25.4056 93.1917 23.7167H105.07C105.07 23.4915 105.07 22.816 105.07 22.5345C105.098 18.6782 102.199 15.2723 97.5265 15.2723C92.9665 15.2723 89.7576 18.453 89.7576 22.6471C89.7576 26.8411 92.7132 30.2189 98.1458 30.2189ZM93.2199 21.5493C93.2199 19.6352 94.9932 17.7211 97.5828 17.7211C100.116 17.7211 101.692 19.4382 101.692 21.5493H93.2199Z" fill="white"/>
</svg>
