<svg width="60" height="60" viewBox="0 0 60 60" fill="none" xmlns="http://www.w3.org/2000/svg">
<rect x="1.02273" y="1.02273" width="57.9545" height="57.9545" rx="28.9773" fill="#EE1818" stroke="white" stroke-width="2.04545"/>
<path d="M19.9847 24.0181C19.0251 22.5787 17.221 21.3696 14.7261 21.3696C11.8473 21.3696 9.16043 22.617 9.16043 24.9968C9.16043 29.1423 17.7776 28.6625 17.7776 31.5221C17.7776 32.5968 16.5685 33.3645 14.5725 33.3645C12.8069 33.3645 11.4251 32.7696 10.6958 31.4261L8.91093 32.2514C9.98568 34.1898 11.7321 35.3797 14.3806 35.3797C17.6816 35.3797 20.3109 33.9979 20.3109 31.3686C20.3109 26.7241 11.4635 26.9736 11.4635 24.8817C11.4635 23.8069 12.9029 23.212 14.3614 23.212C16.2231 23.212 17.5281 23.9221 18.219 24.8625L19.9847 24.0181ZM21.7296 30.2554C21.7296 33.2878 23.8599 35.3989 27.0266 35.3989C30.1933 35.3989 32.3236 33.1918 32.3236 30.2554C32.3236 27.3383 30.1933 25.208 27.0266 25.208C23.8599 25.208 21.7296 27.2423 21.7296 30.2554ZM23.8407 30.2554C23.8407 28.509 24.8195 27.1463 27.0266 27.1463C29.2337 27.1463 30.2125 28.509 30.2125 30.2554C30.2125 32.0211 29.2145 33.4605 27.0266 33.4605C24.8195 33.4605 23.8407 32.0211 23.8407 30.2554ZM34.3629 32.7696C34.3629 34.3241 35.38 35.0918 37.4528 35.0918H38.777V33.1918H37.5487C36.6851 33.1918 36.3972 32.9615 36.3972 32.1746V21.1777H34.3629V32.7696ZM48.2365 26.2443C48.2365 26.8201 48.5436 27.511 48.7355 28.0484L48.3709 28.1827C48.1789 27.6261 48.0638 26.8585 47.6608 26.4362C46.9507 25.6878 45.9527 25.208 44.6668 25.208C41.8648 25.208 39.9264 27.5302 39.888 30.3322C39.8497 33.1918 41.788 35.3989 44.6668 35.3989C45.9527 35.3989 46.9507 34.9575 47.6608 34.209C48.0638 33.8059 48.1789 33.0191 48.3709 32.4817L48.7355 32.5968C48.5436 33.1534 48.2365 33.8251 48.2365 34.4009V35.0918H50.2517V21.1777H48.2365V26.2443ZM44.8779 33.4989C42.9012 33.4989 41.9032 32.1554 41.9032 30.3514C41.9032 28.5665 42.9012 27.0888 44.8779 27.0888C46.8739 27.0888 47.9486 28.5665 47.9486 30.3514C47.9486 32.1554 46.8739 33.4989 44.8779 33.4989Z" fill="white"/>
</svg>
